<svg width="77" height="77" viewBox="0 0 77 77" fill="none" xmlns="http://www.w3.org/2000/svg">
<mask id="mask0_312_127" style="mask-type:alpha" maskUnits="userSpaceOnUse" x="0" y="0" width="77" height="77">
<rect width="76.6343" height="76.6343" fill="#D9D9D9"/>
</mask>
<g mask="url(#mask0_312_127)">
<path d="M33.8469 53.0054L56.3582 30.4941L51.8878 26.0238L33.8469 44.0647L24.7465 34.9644L20.2762 39.4348L33.8469 53.0054ZM38.3172 70.2481C33.9001 70.2481 29.749 69.4099 25.8641 67.7336C21.9792 66.0572 18.5998 63.7821 15.726 60.9083C12.8522 58.0345 10.5772 54.6552 8.90079 50.7702C7.22442 46.8853 6.38623 42.7343 6.38623 38.3172C6.38623 33.9001 7.22442 29.749 8.90079 25.8641C10.5772 21.9792 12.8522 18.5998 15.726 15.726C18.5998 12.8522 21.9792 10.5772 25.8641 8.90079C29.749 7.22442 33.9001 6.38623 38.3172 6.38623C42.7343 6.38623 46.8853 7.22442 50.7703 8.90079C54.6552 10.5772 58.0346 12.8522 60.9083 15.726C63.7821 18.5998 66.0572 21.9792 67.7336 25.8641C69.41 29.749 70.2481 33.9001 70.2481 38.3172C70.2481 42.7343 69.41 46.8853 67.7336 50.7702C66.0572 54.6552 63.7821 58.0345 60.9083 60.9083C58.0346 63.7821 54.6552 66.0572 50.7703 67.7336C46.8853 69.4099 42.7343 70.2481 38.3172 70.2481Z" fill="#FFDC17"/>
</g>
</svg>
